<mxfile host="app.diagrams.net" modified="2023-06-08T23:04:37.174Z" agent="Mozilla/5.0 (Macintosh; Intel Mac OS X 10_15_7) AppleWebKit/537.36 (KHTML, like Gecko) Chrome/112.0.0.0 Safari/537.36" etag="k9AUz2kXwyJNE6KmKgZe" version="21.3.8" type="google">
  <diagram name="Page-1" id="o0MMMFdXsgbf-b0YTcr_">
    <mxGraphModel grid="1" page="1" gridSize="10" guides="1" tooltips="1" connect="1" arrows="1" fold="1" pageScale="1" pageWidth="827" pageHeight="1169" math="0" shadow="0">
      <root>
        <mxCell id="0" />
        <mxCell id="1" parent="0" />
        <mxCell id="NFr6c1AvJfhk1QjGFCys-31" value="" style="rounded=0;whiteSpace=wrap;html=1;" vertex="1" parent="1">
          <mxGeometry x="330" y="470" width="240" height="260" as="geometry" />
        </mxCell>
        <mxCell id="NFr6c1AvJfhk1QjGFCys-3" value="" style="rounded=0;whiteSpace=wrap;html=1;" vertex="1" parent="1">
          <mxGeometry x="30" y="70" width="420" height="280" as="geometry" />
        </mxCell>
        <mxCell id="NFr6c1AvJfhk1QjGFCys-4" value="Not LOGIN" style="text;html=1;align=center;verticalAlign=middle;resizable=0;points=[];autosize=1;strokeColor=none;fillColor=none;" vertex="1" parent="1">
          <mxGeometry x="190" y="30" width="80" height="30" as="geometry" />
        </mxCell>
        <mxCell id="NFr6c1AvJfhk1QjGFCys-5" value="notre maxi logo" style="rounded=0;whiteSpace=wrap;html=1;" vertex="1" parent="1">
          <mxGeometry x="40" y="80" width="100" height="30" as="geometry" />
        </mxCell>
        <mxCell id="NFr6c1AvJfhk1QjGFCys-6" value="play&amp;nbsp; &amp;nbsp; &amp;nbsp; &amp;nbsp; &amp;nbsp; about&amp;nbsp;" style="rounded=0;whiteSpace=wrap;html=1;" vertex="1" parent="1">
          <mxGeometry x="170" y="80" width="120" height="30" as="geometry" />
        </mxCell>
        <mxCell id="NFr6c1AvJfhk1QjGFCys-7" value="Random LINKS (nos git etc)" style="rounded=0;whiteSpace=wrap;html=1;" vertex="1" parent="1">
          <mxGeometry x="310" y="80" width="120" height="40" as="geometry" />
        </mxCell>
        <mxCell id="NFr6c1AvJfhk1QjGFCys-8" value="" style="rounded=0;whiteSpace=wrap;html=1;" vertex="1" parent="1">
          <mxGeometry x="105" y="140" width="250" height="150" as="geometry" />
        </mxCell>
        <mxCell id="VQ3x69lR2PbkfEP9hfOL-22" style="edgeStyle=orthogonalEdgeStyle;rounded=0;orthogonalLoop=1;jettySize=auto;html=1;exitX=1;exitY=0.5;exitDx=0;exitDy=0;entryX=0.122;entryY=-0.011;entryDx=0;entryDy=0;entryPerimeter=0;" edge="1" parent="1" source="NFr6c1AvJfhk1QjGFCys-9" target="NFr6c1AvJfhk1QjGFCys-31">
          <mxGeometry relative="1" as="geometry">
            <mxPoint x="360.0588235294117" y="460" as="targetPoint" />
            <Array as="points">
              <mxPoint x="359" y="190" />
            </Array>
          </mxGeometry>
        </mxCell>
        <mxCell id="NFr6c1AvJfhk1QjGFCys-9" value="LOGIN WITH 42" style="rounded=0;whiteSpace=wrap;html=1;" vertex="1" parent="1">
          <mxGeometry x="170" y="160" width="120" height="60" as="geometry" />
        </mxCell>
        <mxCell id="NFr6c1AvJfhk1QjGFCys-10" value="anonymous" style="rounded=0;whiteSpace=wrap;html=1;" vertex="1" parent="1">
          <mxGeometry x="170" y="240" width="120" height="40" as="geometry" />
        </mxCell>
        <mxCell id="NFr6c1AvJfhk1QjGFCys-11" value="logo, copyright shit" style="rounded=0;whiteSpace=wrap;html=1;" vertex="1" parent="1">
          <mxGeometry x="40" y="310" width="120" height="30" as="geometry" />
        </mxCell>
        <mxCell id="NFr6c1AvJfhk1QjGFCys-12" value="DONATIONS" style="rounded=0;whiteSpace=wrap;html=1;" vertex="1" parent="1">
          <mxGeometry x="320" y="310" width="120" height="30" as="geometry" />
        </mxCell>
        <mxCell id="NFr6c1AvJfhk1QjGFCys-15" value="login" style="rounded=0;whiteSpace=wrap;html=1;" vertex="1" parent="1">
          <mxGeometry x="180" y="85" width="50" height="20" as="geometry" />
        </mxCell>
        <mxCell id="NFr6c1AvJfhk1QjGFCys-16" value="" style="rounded=0;whiteSpace=wrap;html=1;" vertex="1" parent="1">
          <mxGeometry x="480" y="70" width="420" height="280" as="geometry" />
        </mxCell>
        <mxCell id="NFr6c1AvJfhk1QjGFCys-17" value="notre maxi logo" style="rounded=0;whiteSpace=wrap;html=1;" vertex="1" parent="1">
          <mxGeometry x="490" y="80" width="100" height="30" as="geometry" />
        </mxCell>
        <mxCell id="NFr6c1AvJfhk1QjGFCys-18" value="login&amp;nbsp; &amp;nbsp; &amp;nbsp; &amp;nbsp; &amp;nbsp; about&amp;nbsp;" style="rounded=0;whiteSpace=wrap;html=1;" vertex="1" parent="1">
          <mxGeometry x="620" y="80" width="120" height="30" as="geometry" />
        </mxCell>
        <mxCell id="NFr6c1AvJfhk1QjGFCys-19" value="Random LINKS (nos git etc)" style="rounded=0;whiteSpace=wrap;html=1;" vertex="1" parent="1">
          <mxGeometry x="760" y="80" width="120" height="40" as="geometry" />
        </mxCell>
        <mxCell id="NFr6c1AvJfhk1QjGFCys-20" value="des infos en mode read me" style="rounded=0;whiteSpace=wrap;html=1;" vertex="1" parent="1">
          <mxGeometry x="555" y="140" width="250" height="150" as="geometry" />
        </mxCell>
        <mxCell id="NFr6c1AvJfhk1QjGFCys-23" value="logo, copyright shit" style="rounded=0;whiteSpace=wrap;html=1;" vertex="1" parent="1">
          <mxGeometry x="490" y="310" width="120" height="30" as="geometry" />
        </mxCell>
        <mxCell id="NFr6c1AvJfhk1QjGFCys-24" value="DONATIONS" style="rounded=0;whiteSpace=wrap;html=1;" vertex="1" parent="1">
          <mxGeometry x="770" y="310" width="120" height="30" as="geometry" />
        </mxCell>
        <mxCell id="NFr6c1AvJfhk1QjGFCys-25" value="about" style="rounded=0;whiteSpace=wrap;html=1;" vertex="1" parent="1">
          <mxGeometry x="680" y="85" width="50" height="20" as="geometry" />
        </mxCell>
        <mxCell id="NFr6c1AvJfhk1QjGFCys-27" value="no account" style="text;html=1;align=center;verticalAlign=middle;resizable=0;points=[];autosize=1;strokeColor=none;fillColor=none;" vertex="1" parent="1">
          <mxGeometry x="410" y="420" width="80" height="30" as="geometry" />
        </mxCell>
        <mxCell id="NFr6c1AvJfhk1QjGFCys-28" value="select&lt;br&gt;profil" style="ellipse;whiteSpace=wrap;html=1;aspect=fixed;" vertex="1" parent="1">
          <mxGeometry x="410" y="500" width="80" height="80" as="geometry" />
        </mxCell>
        <mxCell id="NFr6c1AvJfhk1QjGFCys-29" value="choose username" style="rounded=0;whiteSpace=wrap;html=1;" vertex="1" parent="1">
          <mxGeometry x="390" y="590" width="120" height="30" as="geometry" />
        </mxCell>
        <mxCell id="NFr6c1AvJfhk1QjGFCys-30" value="auth google? toogle" style="rounded=0;whiteSpace=wrap;html=1;" vertex="1" parent="1">
          <mxGeometry x="390" y="630" width="120" height="40" as="geometry" />
        </mxCell>
        <mxCell id="NFr6c1AvJfhk1QjGFCys-33" value="not login about" style="text;html=1;align=center;verticalAlign=middle;resizable=0;points=[];autosize=1;strokeColor=none;fillColor=none;" vertex="1" parent="1">
          <mxGeometry x="640" y="30" width="100" height="30" as="geometry" />
        </mxCell>
        <mxCell id="NFr6c1AvJfhk1QjGFCys-34" value="" style="rounded=0;whiteSpace=wrap;html=1;" vertex="1" parent="1">
          <mxGeometry x="165" y="770" width="520" height="320" as="geometry" />
        </mxCell>
        <mxCell id="NFr6c1AvJfhk1QjGFCys-35" value="big data etc...." style="rounded=0;whiteSpace=wrap;html=1;" vertex="1" parent="1">
          <mxGeometry x="595" y="245" width="170" height="30" as="geometry" />
        </mxCell>
        <mxCell id="NFr6c1AvJfhk1QjGFCys-36" value="game played" style="rounded=0;whiteSpace=wrap;html=1;" vertex="1" parent="1">
          <mxGeometry x="175" y="310" width="130" height="30" as="geometry" />
        </mxCell>
        <mxCell id="VQ3x69lR2PbkfEP9hfOL-33" style="edgeStyle=orthogonalEdgeStyle;rounded=0;orthogonalLoop=1;jettySize=auto;html=1;entryX=0.892;entryY=-0.011;entryDx=0;entryDy=0;entryPerimeter=0;" edge="1" parent="1" source="NFr6c1AvJfhk1QjGFCys-37" target="VQ3x69lR2PbkfEP9hfOL-31">
          <mxGeometry relative="1" as="geometry">
            <Array as="points">
              <mxPoint x="633" y="900" />
              <mxPoint x="633" y="900" />
            </Array>
          </mxGeometry>
        </mxCell>
        <mxCell id="NFr6c1AvJfhk1QjGFCys-37" value="username" style="rounded=0;whiteSpace=wrap;html=1;" vertex="1" parent="1">
          <mxGeometry x="540" y="780" width="120" height="30" as="geometry" />
        </mxCell>
        <mxCell id="NFr6c1AvJfhk1QjGFCys-38" value="page name: home" style="rounded=0;whiteSpace=wrap;html=1;" vertex="1" parent="1">
          <mxGeometry x="180" y="780" width="120" height="30" as="geometry" />
        </mxCell>
        <mxCell id="VQ3x69lR2PbkfEP9hfOL-80" style="edgeStyle=orthogonalEdgeStyle;rounded=0;orthogonalLoop=1;jettySize=auto;html=1;entryX=0;entryY=0.5;entryDx=0;entryDy=0;" edge="1" parent="1" source="NFr6c1AvJfhk1QjGFCys-39" target="VQ3x69lR2PbkfEP9hfOL-68">
          <mxGeometry relative="1" as="geometry">
            <Array as="points">
              <mxPoint x="670" y="875" />
              <mxPoint x="670" y="560" />
            </Array>
          </mxGeometry>
        </mxCell>
        <mxCell id="NFr6c1AvJfhk1QjGFCys-39" value="Random 1 v 1" style="rounded=0;whiteSpace=wrap;html=1;" vertex="1" parent="1">
          <mxGeometry x="334" y="850" width="160" height="30" as="geometry" />
        </mxCell>
        <mxCell id="NFr6c1AvJfhk1QjGFCys-40" value="" style="rounded=0;whiteSpace=wrap;html=1;" vertex="1" parent="1">
          <mxGeometry x="250" y="890" width="350" height="190" as="geometry" />
        </mxCell>
        <mxCell id="NFr6c1AvJfhk1QjGFCys-42" value="list of current game" style="rounded=0;whiteSpace=wrap;html=1;" vertex="1" parent="1">
          <mxGeometry x="354" y="950" width="120" height="30" as="geometry" />
        </mxCell>
        <mxCell id="VQ3x69lR2PbkfEP9hfOL-20" style="edgeStyle=orthogonalEdgeStyle;rounded=0;orthogonalLoop=1;jettySize=auto;html=1;exitX=1;exitY=0.5;exitDx=0;exitDy=0;entryX=0;entryY=0.5;entryDx=0;entryDy=0;" edge="1" parent="1" source="NFr6c1AvJfhk1QjGFCys-44" target="VQ3x69lR2PbkfEP9hfOL-1">
          <mxGeometry relative="1" as="geometry" />
        </mxCell>
        <mxCell id="NFr6c1AvJfhk1QjGFCys-44" value="Create game" style="rounded=0;whiteSpace=wrap;html=1;" vertex="1" parent="1">
          <mxGeometry x="355" y="895" width="120" height="20" as="geometry" />
        </mxCell>
        <mxCell id="NFr6c1AvJfhk1QjGFCys-45" value="" style="rounded=0;whiteSpace=wrap;html=1;" vertex="1" parent="1">
          <mxGeometry x="260" y="990" width="330" height="70" as="geometry" />
        </mxCell>
        <mxCell id="NFr6c1AvJfhk1QjGFCys-48" value="player/ capacity" style="rounded=0;whiteSpace=wrap;html=1;" vertex="1" parent="1">
          <mxGeometry x="398" y="1000" width="104" height="50" as="geometry" />
        </mxCell>
        <mxCell id="VQ3x69lR2PbkfEP9hfOL-34" style="edgeStyle=orthogonalEdgeStyle;rounded=0;orthogonalLoop=1;jettySize=auto;html=1;entryX=0.114;entryY=0.004;entryDx=0;entryDy=0;entryPerimeter=0;" edge="1" parent="1" source="NFr6c1AvJfhk1QjGFCys-49" target="VQ3x69lR2PbkfEP9hfOL-31">
          <mxGeometry relative="1" as="geometry" />
        </mxCell>
        <mxCell id="NFr6c1AvJfhk1QjGFCys-49" value="link to creator profile" style="rounded=0;whiteSpace=wrap;html=1;" vertex="1" parent="1">
          <mxGeometry x="270" y="1025" width="120" height="30" as="geometry" />
        </mxCell>
        <mxCell id="VQ3x69lR2PbkfEP9hfOL-41" style="edgeStyle=orthogonalEdgeStyle;rounded=0;orthogonalLoop=1;jettySize=auto;html=1;exitX=1;exitY=0.5;exitDx=0;exitDy=0;entryX=0;entryY=0.75;entryDx=0;entryDy=0;" edge="1" parent="1" source="NFr6c1AvJfhk1QjGFCys-50" target="VQ3x69lR2PbkfEP9hfOL-18">
          <mxGeometry relative="1" as="geometry">
            <Array as="points">
              <mxPoint x="620" y="1010" />
              <mxPoint x="620" y="1130" />
              <mxPoint x="990" y="1130" />
              <mxPoint x="990" y="1010" />
            </Array>
          </mxGeometry>
        </mxCell>
        <mxCell id="NFr6c1AvJfhk1QjGFCys-50" value="join" style="rounded=0;whiteSpace=wrap;html=1;" vertex="1" parent="1">
          <mxGeometry x="510" y="1000" width="70" height="20" as="geometry" />
        </mxCell>
        <mxCell id="VQ3x69lR2PbkfEP9hfOL-1" value="" style="rounded=0;whiteSpace=wrap;html=1;" vertex="1" parent="1">
          <mxGeometry x="740" y="770" width="200" height="320" as="geometry" />
        </mxCell>
        <mxCell id="VQ3x69lR2PbkfEP9hfOL-2" value="player amount" style="rounded=0;whiteSpace=wrap;html=1;" vertex="1" parent="1">
          <mxGeometry x="790" y="845" width="120" height="45" as="geometry" />
        </mxCell>
        <mxCell id="VQ3x69lR2PbkfEP9hfOL-3" value="&lt;span style=&quot;color: rgb(0, 0, 0); font-family: Helvetica; font-size: 12px; font-style: normal; font-variant-ligatures: normal; font-variant-caps: normal; font-weight: 400; letter-spacing: normal; orphans: 2; text-align: center; text-indent: 0px; text-transform: none; widows: 2; word-spacing: 0px; -webkit-text-stroke-width: 0px; background-color: rgb(251, 251, 251); text-decoration-thickness: initial; text-decoration-style: initial; text-decoration-color: initial; float: none; display: inline !important;&quot;&gt;game name&lt;/span&gt;" style="rounded=0;whiteSpace=wrap;html=1;" vertex="1" parent="1">
          <mxGeometry x="790" y="810" width="120" height="30" as="geometry" />
        </mxCell>
        <mxCell id="VQ3x69lR2PbkfEP9hfOL-4" value="public / potected /&amp;nbsp; private" style="rounded=0;whiteSpace=wrap;html=1;" vertex="1" parent="1">
          <mxGeometry x="790" y="900" width="120" height="30" as="geometry" />
        </mxCell>
        <mxCell id="VQ3x69lR2PbkfEP9hfOL-6" value="&lt;span style=&quot;color: rgb(0, 0, 0); font-family: Helvetica; font-size: 12px; font-style: normal; font-variant-ligatures: normal; font-variant-caps: normal; font-weight: 400; letter-spacing: normal; orphans: 2; text-align: center; text-indent: 0px; text-transform: none; widows: 2; word-spacing: 0px; -webkit-text-stroke-width: 0px; background-color: rgb(251, 251, 251); text-decoration-thickness: initial; text-decoration-style: initial; text-decoration-color: initial; float: none; display: inline !important;&quot;&gt;game name&lt;/span&gt;" style="rounded=0;whiteSpace=wrap;html=1;" vertex="1" parent="1">
          <mxGeometry x="270" y="995" width="120" height="25" as="geometry" />
        </mxCell>
        <mxCell id="VQ3x69lR2PbkfEP9hfOL-7" value="if protected : password" style="rounded=0;whiteSpace=wrap;html=1;" vertex="1" parent="1">
          <mxGeometry x="790" y="940" width="120" height="40" as="geometry" />
        </mxCell>
        <mxCell id="VQ3x69lR2PbkfEP9hfOL-8" value="game mode?" style="rounded=0;whiteSpace=wrap;html=1;" vertex="1" parent="1">
          <mxGeometry x="790" y="990" width="120" height="35" as="geometry" />
        </mxCell>
        <mxCell id="VQ3x69lR2PbkfEP9hfOL-21" style="edgeStyle=orthogonalEdgeStyle;rounded=0;orthogonalLoop=1;jettySize=auto;html=1;exitX=1;exitY=0.5;exitDx=0;exitDy=0;entryX=0.008;entryY=0.553;entryDx=0;entryDy=0;entryPerimeter=0;" edge="1" parent="1" source="VQ3x69lR2PbkfEP9hfOL-10" target="VQ3x69lR2PbkfEP9hfOL-18">
          <mxGeometry relative="1" as="geometry" />
        </mxCell>
        <mxCell id="VQ3x69lR2PbkfEP9hfOL-10" value="Create" style="rounded=0;whiteSpace=wrap;html=1;" vertex="1" parent="1">
          <mxGeometry x="790" y="1040" width="120" height="40" as="geometry" />
        </mxCell>
        <mxCell id="VQ3x69lR2PbkfEP9hfOL-69" style="edgeStyle=orthogonalEdgeStyle;rounded=0;orthogonalLoop=1;jettySize=auto;html=1;entryX=0.5;entryY=1;entryDx=0;entryDy=0;" edge="1" parent="1" source="VQ3x69lR2PbkfEP9hfOL-18" target="VQ3x69lR2PbkfEP9hfOL-68">
          <mxGeometry relative="1" as="geometry">
            <Array as="points">
              <mxPoint x="1310" y="930" />
              <mxPoint x="1310" y="720" />
            </Array>
          </mxGeometry>
        </mxCell>
        <mxCell id="VQ3x69lR2PbkfEP9hfOL-18" value="" style="rounded=0;whiteSpace=wrap;html=1;" vertex="1" parent="1">
          <mxGeometry x="1001" y="770" width="240" height="320" as="geometry" />
        </mxCell>
        <mxCell id="VQ3x69lR2PbkfEP9hfOL-19" value="waiting for players&lt;br&gt;&lt;br&gt;l;/.,l[po" style="rounded=0;whiteSpace=wrap;html=1;" vertex="1" parent="1">
          <mxGeometry x="1040" y="830" width="160" height="230" as="geometry" />
        </mxCell>
        <mxCell id="VQ3x69lR2PbkfEP9hfOL-23" value="PLAY" style="rounded=0;whiteSpace=wrap;html=1;" vertex="1" parent="1">
          <mxGeometry x="365" y="750" width="120" height="50" as="geometry" />
        </mxCell>
        <mxCell id="VQ3x69lR2PbkfEP9hfOL-24" value="NEW ACCOUNT /&lt;br&gt;edit profile" style="rounded=0;whiteSpace=wrap;html=1;" vertex="1" parent="1">
          <mxGeometry x="390" y="430" width="120" height="60" as="geometry" />
        </mxCell>
        <mxCell id="VQ3x69lR2PbkfEP9hfOL-25" value="NOT LOGGED" style="rounded=0;whiteSpace=wrap;html=1;" vertex="1" parent="1">
          <mxGeometry x="175" y="15" width="120" height="60" as="geometry" />
        </mxCell>
        <mxCell id="VQ3x69lR2PbkfEP9hfOL-26" value="ABOUT" style="rounded=0;whiteSpace=wrap;html=1;" vertex="1" parent="1">
          <mxGeometry x="630" y="15" width="120" height="60" as="geometry" />
        </mxCell>
        <mxCell id="VQ3x69lR2PbkfEP9hfOL-175" style="edgeStyle=orthogonalEdgeStyle;rounded=0;orthogonalLoop=1;jettySize=auto;html=1;entryX=0.25;entryY=0;entryDx=0;entryDy=0;" edge="1" parent="1" source="VQ3x69lR2PbkfEP9hfOL-27" target="NFr6c1AvJfhk1QjGFCys-34">
          <mxGeometry relative="1" as="geometry" />
        </mxCell>
        <mxCell id="VQ3x69lR2PbkfEP9hfOL-27" value="SAVE" style="rounded=0;whiteSpace=wrap;html=1;" vertex="1" parent="1">
          <mxGeometry x="390" y="680" width="120" height="40" as="geometry" />
        </mxCell>
        <mxCell id="VQ3x69lR2PbkfEP9hfOL-28" value="FILL WITH BOTS&lt;br&gt;if owner" style="rounded=0;whiteSpace=wrap;html=1;" vertex="1" parent="1">
          <mxGeometry x="1061.5" y="990" width="119" height="40" as="geometry" />
        </mxCell>
        <mxCell id="VQ3x69lR2PbkfEP9hfOL-29" value="player / capacity" style="rounded=0;whiteSpace=wrap;html=1;" vertex="1" parent="1">
          <mxGeometry x="1061.5" y="837.5" width="118.5" height="32.5" as="geometry" />
        </mxCell>
        <mxCell id="VQ3x69lR2PbkfEP9hfOL-30" value="CHAT ROOM" style="rounded=0;whiteSpace=wrap;html=1;" vertex="1" parent="1">
          <mxGeometry x="1061.5" y="880" width="118.5" height="40" as="geometry" />
        </mxCell>
        <mxCell id="VQ3x69lR2PbkfEP9hfOL-31" value="" style="rounded=0;whiteSpace=wrap;html=1;" vertex="1" parent="1">
          <mxGeometry x="160" y="1160" width="530" height="340" as="geometry" />
        </mxCell>
        <mxCell id="VQ3x69lR2PbkfEP9hfOL-32" value="PROFILE" style="rounded=0;whiteSpace=wrap;html=1;" vertex="1" parent="1">
          <mxGeometry x="355" y="1130" width="120" height="60" as="geometry" />
        </mxCell>
        <mxCell id="VQ3x69lR2PbkfEP9hfOL-36" value="" style="rounded=0;whiteSpace=wrap;html=1;" vertex="1" parent="1">
          <mxGeometry x="220" y="1210" width="410" height="250" as="geometry" />
        </mxCell>
        <mxCell id="VQ3x69lR2PbkfEP9hfOL-37" value="photo" style="ellipse;whiteSpace=wrap;html=1;aspect=fixed;" vertex="1" parent="1">
          <mxGeometry x="374" y="1230" width="80" height="80" as="geometry" />
        </mxCell>
        <mxCell id="VQ3x69lR2PbkfEP9hfOL-38" value="infos" style="rounded=0;whiteSpace=wrap;html=1;" vertex="1" parent="1">
          <mxGeometry x="290" y="1330" width="260" height="90" as="geometry" />
        </mxCell>
        <mxCell id="VQ3x69lR2PbkfEP9hfOL-160" style="edgeStyle=orthogonalEdgeStyle;rounded=0;orthogonalLoop=1;jettySize=auto;html=1;entryX=1;entryY=0.5;entryDx=0;entryDy=0;" edge="1" parent="1" source="VQ3x69lR2PbkfEP9hfOL-40" target="NFr6c1AvJfhk1QjGFCys-31">
          <mxGeometry relative="1" as="geometry">
            <mxPoint x="705" y="600" as="targetPoint" />
            <Array as="points">
              <mxPoint x="725" y="1270" />
              <mxPoint x="725" y="600" />
            </Array>
          </mxGeometry>
        </mxCell>
        <mxCell id="VQ3x69lR2PbkfEP9hfOL-40" value="edit&lt;br&gt;if me" style="rounded=0;whiteSpace=wrap;html=1;" vertex="1" parent="1">
          <mxGeometry x="474" y="1240" width="120" height="60" as="geometry" />
        </mxCell>
        <mxCell id="VQ3x69lR2PbkfEP9hfOL-42" value="quit" style="rounded=0;whiteSpace=wrap;html=1;" vertex="1" parent="1">
          <mxGeometry x="1060.75" y="1035" width="118.5" height="20" as="geometry" />
        </mxCell>
        <mxCell id="VQ3x69lR2PbkfEP9hfOL-45" style="edgeStyle=orthogonalEdgeStyle;rounded=0;orthogonalLoop=1;jettySize=auto;html=1;entryX=0.163;entryY=1.005;entryDx=0;entryDy=0;entryPerimeter=0;" edge="1" parent="1" source="VQ3x69lR2PbkfEP9hfOL-43" target="VQ3x69lR2PbkfEP9hfOL-18">
          <mxGeometry relative="1" as="geometry">
            <mxPoint x="545" y="1149.9999999999998" as="targetPoint" />
            <Array as="points">
              <mxPoint x="545" y="1150" />
              <mxPoint x="1040" y="1150" />
            </Array>
          </mxGeometry>
        </mxCell>
        <mxCell id="VQ3x69lR2PbkfEP9hfOL-43" value="view" style="rounded=0;whiteSpace=wrap;html=1;" vertex="1" parent="1">
          <mxGeometry x="510" y="1030" width="70" height="20" as="geometry" />
        </mxCell>
        <mxCell id="VQ3x69lR2PbkfEP9hfOL-49" style="edgeStyle=orthogonalEdgeStyle;rounded=0;orthogonalLoop=1;jettySize=auto;html=1;entryX=0.5;entryY=0;entryDx=0;entryDy=0;" edge="1" parent="1" source="VQ3x69lR2PbkfEP9hfOL-46" target="VQ3x69lR2PbkfEP9hfOL-48">
          <mxGeometry relative="1" as="geometry">
            <Array as="points">
              <mxPoint x="305" y="1220" />
              <mxPoint x="1010" y="1220" />
            </Array>
          </mxGeometry>
        </mxCell>
        <mxCell id="VQ3x69lR2PbkfEP9hfOL-46" value="chat:&lt;br&gt;if not me" style="rounded=0;whiteSpace=wrap;html=1;" vertex="1" parent="1">
          <mxGeometry x="245" y="1230" width="120" height="60" as="geometry" />
        </mxCell>
        <mxCell id="VQ3x69lR2PbkfEP9hfOL-47" value="" style="rounded=0;whiteSpace=wrap;html=1;" vertex="1" parent="1">
          <mxGeometry x="740" y="1380" width="570" height="350" as="geometry" />
        </mxCell>
        <mxCell id="VQ3x69lR2PbkfEP9hfOL-48" value="chat 1 v 1" style="rounded=0;whiteSpace=wrap;html=1;" vertex="1" parent="1">
          <mxGeometry x="950" y="1345" width="120" height="60" as="geometry" />
        </mxCell>
        <mxCell id="VQ3x69lR2PbkfEP9hfOL-50" value="input box" style="rounded=0;whiteSpace=wrap;html=1;" vertex="1" parent="1">
          <mxGeometry x="830" y="1660" width="460" height="50" as="geometry" />
        </mxCell>
        <mxCell id="VQ3x69lR2PbkfEP9hfOL-51" value="SCROLL CONTAINER" style="rounded=0;whiteSpace=wrap;html=1;" vertex="1" parent="1">
          <mxGeometry x="830" y="1410" width="460" height="240" as="geometry" />
        </mxCell>
        <mxCell id="VQ3x69lR2PbkfEP9hfOL-52" value="salut mec" style="rounded=1;whiteSpace=wrap;html=1;" vertex="1" parent="1">
          <mxGeometry x="840" y="1420" width="120" height="60" as="geometry" />
        </mxCell>
        <mxCell id="VQ3x69lR2PbkfEP9hfOL-53" value="salut NEILA" style="rounded=1;whiteSpace=wrap;html=1;" vertex="1" parent="1">
          <mxGeometry x="1160" y="1450" width="120" height="60" as="geometry" />
        </mxCell>
        <mxCell id="VQ3x69lR2PbkfEP9hfOL-54" value="ca vas?" style="rounded=1;whiteSpace=wrap;html=1;" vertex="1" parent="1">
          <mxGeometry x="840" y="1540" width="120" height="60" as="geometry" />
        </mxCell>
        <mxCell id="VQ3x69lR2PbkfEP9hfOL-55" value="je t&#39;aime" style="rounded=1;whiteSpace=wrap;html=1;" vertex="1" parent="1">
          <mxGeometry x="1160" y="1580" width="120" height="60" as="geometry" />
        </mxCell>
        <mxCell id="VQ3x69lR2PbkfEP9hfOL-66" style="edgeStyle=orthogonalEdgeStyle;rounded=0;orthogonalLoop=1;jettySize=auto;html=1;entryX=1;entryY=0.5;entryDx=0;entryDy=0;" edge="1" parent="1" source="VQ3x69lR2PbkfEP9hfOL-56" target="VQ3x69lR2PbkfEP9hfOL-38">
          <mxGeometry relative="1" as="geometry" />
        </mxCell>
        <mxCell id="VQ3x69lR2PbkfEP9hfOL-67" value="same&lt;br&gt;" style="edgeLabel;html=1;align=center;verticalAlign=middle;resizable=0;points=[];" connectable="0" vertex="1" parent="VQ3x69lR2PbkfEP9hfOL-66">
          <mxGeometry x="0.0173" relative="1" as="geometry">
            <mxPoint as="offset" />
          </mxGeometry>
        </mxCell>
        <mxCell id="VQ3x69lR2PbkfEP9hfOL-56" value="info du mec" style="rounded=1;whiteSpace=wrap;html=1;" vertex="1" parent="1">
          <mxGeometry x="747" y="1405" width="73" height="305" as="geometry" />
        </mxCell>
        <mxCell id="VQ3x69lR2PbkfEP9hfOL-58" value="chats" style="rounded=0;whiteSpace=wrap;html=1;" vertex="1" parent="1">
          <mxGeometry x="430" y="813.75" width="60" height="22.5" as="geometry" />
        </mxCell>
        <mxCell id="VQ3x69lR2PbkfEP9hfOL-59" value="game" style="rounded=0;whiteSpace=wrap;html=1;" vertex="1" parent="1">
          <mxGeometry x="345" y="810" width="70" height="31.25" as="geometry" />
        </mxCell>
        <mxCell id="VQ3x69lR2PbkfEP9hfOL-63" value="play" style="rounded=0;whiteSpace=wrap;html=1;" vertex="1" parent="1">
          <mxGeometry x="352.5" y="816.25" width="55" height="17.5" as="geometry" />
        </mxCell>
        <mxCell id="VQ3x69lR2PbkfEP9hfOL-64" value="elo" style="rounded=0;whiteSpace=wrap;html=1;" vertex="1" parent="1">
          <mxGeometry x="454" y="1345" width="70" height="25" as="geometry" />
        </mxCell>
        <mxCell id="VQ3x69lR2PbkfEP9hfOL-65" value="status" style="rounded=0;whiteSpace=wrap;html=1;" vertex="1" parent="1">
          <mxGeometry x="454" y="1380" width="70" height="25" as="geometry" />
        </mxCell>
        <mxCell id="VQ3x69lR2PbkfEP9hfOL-68" value="" style="rounded=0;whiteSpace=wrap;html=1;" vertex="1" parent="1">
          <mxGeometry x="822.5" y="400" width="610" height="320" as="geometry" />
        </mxCell>
        <mxCell id="VQ3x69lR2PbkfEP9hfOL-70" value="" style="rounded=0;whiteSpace=wrap;html=1;" vertex="1" parent="1">
          <mxGeometry x="980" y="432.5" width="260" height="255" as="geometry" />
        </mxCell>
        <mxCell id="VQ3x69lR2PbkfEP9hfOL-71" value="FOND CIRCULAIRE == LUNE" style="ellipse;whiteSpace=wrap;html=1;aspect=fixed;" vertex="1" parent="1">
          <mxGeometry x="980" y="432.5" width="255" height="255" as="geometry" />
        </mxCell>
        <mxCell id="VQ3x69lR2PbkfEP9hfOL-74" value="list player" style="rounded=0;whiteSpace=wrap;html=1;" vertex="1" parent="1">
          <mxGeometry x="832.5" y="432.5" width="135" height="100" as="geometry" />
        </mxCell>
        <mxCell id="VQ3x69lR2PbkfEP9hfOL-76" value="GAME" style="rounded=0;whiteSpace=wrap;html=1;" vertex="1" parent="1">
          <mxGeometry x="1061.5" y="360" width="120" height="50" as="geometry" />
        </mxCell>
        <mxCell id="VQ3x69lR2PbkfEP9hfOL-77" value="etoiles filante ou autre truc" style="rounded=0;whiteSpace=wrap;html=1;" vertex="1" parent="1">
          <mxGeometry x="1290" y="450" width="100" height="220" as="geometry" />
        </mxCell>
        <mxCell id="VQ3x69lR2PbkfEP9hfOL-79" value="score if 1v1" style="rounded=0;whiteSpace=wrap;html=1;" vertex="1" parent="1">
          <mxGeometry x="840" y="610" width="120" height="60" as="geometry" />
        </mxCell>
        <mxCell id="VQ3x69lR2PbkfEP9hfOL-81" value="" style="rounded=0;whiteSpace=wrap;html=1;" vertex="1" parent="1">
          <mxGeometry x="-450" y="780" width="520" height="320" as="geometry" />
        </mxCell>
        <mxCell id="VQ3x69lR2PbkfEP9hfOL-169" style="edgeStyle=orthogonalEdgeStyle;rounded=0;orthogonalLoop=1;jettySize=auto;html=1;entryX=0;entryY=0.25;entryDx=0;entryDy=0;" edge="1" parent="1" source="VQ3x69lR2PbkfEP9hfOL-82" target="VQ3x69lR2PbkfEP9hfOL-31">
          <mxGeometry relative="1" as="geometry" />
        </mxCell>
        <mxCell id="VQ3x69lR2PbkfEP9hfOL-82" value="username" style="rounded=0;whiteSpace=wrap;html=1;" vertex="1" parent="1">
          <mxGeometry x="-75" y="790" width="120" height="30" as="geometry" />
        </mxCell>
        <mxCell id="VQ3x69lR2PbkfEP9hfOL-83" value="page name: home" style="rounded=0;whiteSpace=wrap;html=1;" vertex="1" parent="1">
          <mxGeometry x="-435" y="790" width="120" height="30" as="geometry" />
        </mxCell>
        <mxCell id="VQ3x69lR2PbkfEP9hfOL-85" value="" style="rounded=0;whiteSpace=wrap;html=1;" vertex="1" parent="1">
          <mxGeometry x="-365" y="870" width="350" height="220" as="geometry" />
        </mxCell>
        <mxCell id="VQ3x69lR2PbkfEP9hfOL-86" value="list of current chats" style="rounded=0;whiteSpace=wrap;html=1;" vertex="1" parent="1">
          <mxGeometry x="-260" y="945" width="120" height="30" as="geometry" />
        </mxCell>
        <mxCell id="VQ3x69lR2PbkfEP9hfOL-140" style="edgeStyle=orthogonalEdgeStyle;rounded=0;orthogonalLoop=1;jettySize=auto;html=1;entryX=1.002;entryY=0.41;entryDx=0;entryDy=0;entryPerimeter=0;" edge="1" parent="1" source="VQ3x69lR2PbkfEP9hfOL-87" target="VQ3x69lR2PbkfEP9hfOL-133">
          <mxGeometry relative="1" as="geometry">
            <Array as="points">
              <mxPoint x="-375" y="900" />
              <mxPoint x="-375" y="901" />
            </Array>
          </mxGeometry>
        </mxCell>
        <mxCell id="VQ3x69lR2PbkfEP9hfOL-87" value="Create chat room" style="rounded=0;whiteSpace=wrap;html=1;" vertex="1" parent="1">
          <mxGeometry x="-260" y="890" width="120" height="20" as="geometry" />
        </mxCell>
        <mxCell id="VQ3x69lR2PbkfEP9hfOL-88" value="" style="rounded=0;whiteSpace=wrap;html=1;" vertex="1" parent="1">
          <mxGeometry x="-355" y="1000" width="330" height="70" as="geometry" />
        </mxCell>
        <mxCell id="VQ3x69lR2PbkfEP9hfOL-89" value="member / capacity" style="rounded=0;whiteSpace=wrap;html=1;" vertex="1" parent="1">
          <mxGeometry x="-217" y="1010" width="104" height="50" as="geometry" />
        </mxCell>
        <mxCell id="VQ3x69lR2PbkfEP9hfOL-90" value="link to creator profile" style="rounded=0;whiteSpace=wrap;html=1;" vertex="1" parent="1">
          <mxGeometry x="-345" y="1035" width="120" height="30" as="geometry" />
        </mxCell>
        <mxCell id="VQ3x69lR2PbkfEP9hfOL-128" style="edgeStyle=orthogonalEdgeStyle;rounded=0;orthogonalLoop=1;jettySize=auto;html=1;entryX=0.683;entryY=-0.014;entryDx=0;entryDy=0;entryPerimeter=0;" edge="1" parent="1" source="VQ3x69lR2PbkfEP9hfOL-91" target="VQ3x69lR2PbkfEP9hfOL-102">
          <mxGeometry relative="1" as="geometry">
            <Array as="points">
              <mxPoint x="30" y="1020" />
              <mxPoint x="30" y="1245" />
            </Array>
          </mxGeometry>
        </mxCell>
        <mxCell id="VQ3x69lR2PbkfEP9hfOL-91" value="join" style="rounded=0;whiteSpace=wrap;html=1;" vertex="1" parent="1">
          <mxGeometry x="-105" y="1010" width="70" height="20" as="geometry" />
        </mxCell>
        <mxCell id="VQ3x69lR2PbkfEP9hfOL-92" value="&lt;span style=&quot;color: rgb(0, 0, 0); font-family: Helvetica; font-size: 12px; font-style: normal; font-variant-ligatures: normal; font-variant-caps: normal; font-weight: 400; letter-spacing: normal; orphans: 2; text-align: center; text-indent: 0px; text-transform: none; widows: 2; word-spacing: 0px; -webkit-text-stroke-width: 0px; background-color: rgb(251, 251, 251); text-decoration-thickness: initial; text-decoration-style: initial; text-decoration-color: initial; float: none; display: inline !important;&quot;&gt;chat name&lt;/span&gt;" style="rounded=0;whiteSpace=wrap;html=1;" vertex="1" parent="1">
          <mxGeometry x="-345" y="1005" width="120" height="25" as="geometry" />
        </mxCell>
        <mxCell id="VQ3x69lR2PbkfEP9hfOL-93" value="CHATS" style="rounded=0;whiteSpace=wrap;html=1;" vertex="1" parent="1">
          <mxGeometry x="-250" y="760" width="120" height="50" as="geometry" />
        </mxCell>
        <mxCell id="VQ3x69lR2PbkfEP9hfOL-142" style="edgeStyle=orthogonalEdgeStyle;rounded=0;orthogonalLoop=1;jettySize=auto;html=1;" edge="1" parent="1" source="VQ3x69lR2PbkfEP9hfOL-94" target="VQ3x69lR2PbkfEP9hfOL-110">
          <mxGeometry relative="1" as="geometry">
            <Array as="points">
              <mxPoint x="-70" y="1130" />
              <mxPoint x="-440" y="1130" />
            </Array>
          </mxGeometry>
        </mxCell>
        <mxCell id="VQ3x69lR2PbkfEP9hfOL-170" value="same" style="edgeLabel;html=1;align=center;verticalAlign=middle;resizable=0;points=[];" connectable="0" vertex="1" parent="VQ3x69lR2PbkfEP9hfOL-142">
          <mxGeometry x="-0.3032" y="3" relative="1" as="geometry">
            <mxPoint as="offset" />
          </mxGeometry>
        </mxCell>
        <mxCell id="VQ3x69lR2PbkfEP9hfOL-171" value="&lt;br&gt;" style="edgeLabel;html=1;align=center;verticalAlign=middle;resizable=0;points=[];" connectable="0" vertex="1" parent="VQ3x69lR2PbkfEP9hfOL-142">
          <mxGeometry x="-0.1756" y="-1" relative="1" as="geometry">
            <mxPoint as="offset" />
          </mxGeometry>
        </mxCell>
        <mxCell id="VQ3x69lR2PbkfEP9hfOL-94" value="view" style="rounded=0;whiteSpace=wrap;html=1;" vertex="1" parent="1">
          <mxGeometry x="-105" y="1040" width="70" height="20" as="geometry" />
        </mxCell>
        <mxCell id="VQ3x69lR2PbkfEP9hfOL-95" value="chats" style="rounded=0;whiteSpace=wrap;html=1;" vertex="1" parent="1">
          <mxGeometry x="-190" y="820" width="70" height="30" as="geometry" />
        </mxCell>
        <mxCell id="VQ3x69lR2PbkfEP9hfOL-96" value="play" style="rounded=0;whiteSpace=wrap;html=1;" vertex="1" parent="1">
          <mxGeometry x="-260" y="824.38" width="60" height="21.25" as="geometry" />
        </mxCell>
        <mxCell id="VQ3x69lR2PbkfEP9hfOL-97" value="chats" style="rounded=0;whiteSpace=wrap;html=1;" vertex="1" parent="1">
          <mxGeometry x="-182.5" y="826.25" width="55" height="17.5" as="geometry" />
        </mxCell>
        <mxCell id="VQ3x69lR2PbkfEP9hfOL-129" style="edgeStyle=orthogonalEdgeStyle;rounded=0;orthogonalLoop=1;jettySize=auto;html=1;entryX=0.202;entryY=-0.002;entryDx=0;entryDy=0;entryPerimeter=0;" edge="1" parent="1" source="VQ3x69lR2PbkfEP9hfOL-100" target="VQ3x69lR2PbkfEP9hfOL-102">
          <mxGeometry relative="1" as="geometry">
            <Array as="points">
              <mxPoint x="-410" y="927" />
              <mxPoint x="-410" y="1249" />
            </Array>
          </mxGeometry>
        </mxCell>
        <mxCell id="VQ3x69lR2PbkfEP9hfOL-100" value="Join invite" style="rounded=0;whiteSpace=wrap;html=1;" vertex="1" parent="1">
          <mxGeometry x="-244" y="915" width="90" height="25" as="geometry" />
        </mxCell>
        <mxCell id="VQ3x69lR2PbkfEP9hfOL-130" style="edgeStyle=orthogonalEdgeStyle;rounded=0;orthogonalLoop=1;jettySize=auto;html=1;" edge="1" parent="1" source="VQ3x69lR2PbkfEP9hfOL-101" target="VQ3x69lR2PbkfEP9hfOL-18">
          <mxGeometry relative="1" as="geometry">
            <Array as="points">
              <mxPoint x="539" y="935" />
              <mxPoint x="539" y="750" />
              <mxPoint x="1050" y="750" />
            </Array>
          </mxGeometry>
        </mxCell>
        <mxCell id="VQ3x69lR2PbkfEP9hfOL-101" value="Join&amp;nbsp; invite" style="rounded=0;whiteSpace=wrap;html=1;" vertex="1" parent="1">
          <mxGeometry x="370" y="925" width="90" height="20" as="geometry" />
        </mxCell>
        <mxCell id="VQ3x69lR2PbkfEP9hfOL-102" value="" style="rounded=0;whiteSpace=wrap;html=1;" vertex="1" parent="1">
          <mxGeometry x="-460" y="1250" width="570" height="350" as="geometry" />
        </mxCell>
        <mxCell id="VQ3x69lR2PbkfEP9hfOL-103" value="chat N" style="rounded=0;whiteSpace=wrap;html=1;" vertex="1" parent="1">
          <mxGeometry x="-250" y="1215" width="120" height="60" as="geometry" />
        </mxCell>
        <mxCell id="VQ3x69lR2PbkfEP9hfOL-104" value="input box" style="rounded=0;whiteSpace=wrap;html=1;" vertex="1" parent="1">
          <mxGeometry x="-370" y="1530" width="460" height="50" as="geometry" />
        </mxCell>
        <mxCell id="VQ3x69lR2PbkfEP9hfOL-105" value="SCROLL CONTAINER" style="rounded=0;whiteSpace=wrap;html=1;" vertex="1" parent="1">
          <mxGeometry x="-370" y="1280" width="460" height="240" as="geometry" />
        </mxCell>
        <mxCell id="VQ3x69lR2PbkfEP9hfOL-106" value="salut les mec" style="rounded=1;whiteSpace=wrap;html=1;" vertex="1" parent="1">
          <mxGeometry x="-360" y="1290" width="120" height="60" as="geometry" />
        </mxCell>
        <mxCell id="VQ3x69lR2PbkfEP9hfOL-107" value="salut NEILA" style="rounded=1;whiteSpace=wrap;html=1;" vertex="1" parent="1">
          <mxGeometry x="-40" y="1320" width="120" height="60" as="geometry" />
        </mxCell>
        <mxCell id="VQ3x69lR2PbkfEP9hfOL-108" value="ca vas les mec?" style="rounded=1;whiteSpace=wrap;html=1;" vertex="1" parent="1">
          <mxGeometry x="-360" y="1410" width="120" height="60" as="geometry" />
        </mxCell>
        <mxCell id="VQ3x69lR2PbkfEP9hfOL-109" value="je t&#39;aime" style="rounded=1;whiteSpace=wrap;html=1;" vertex="1" parent="1">
          <mxGeometry x="-40" y="1450" width="120" height="60" as="geometry" />
        </mxCell>
        <mxCell id="VQ3x69lR2PbkfEP9hfOL-110" value="list des membres" style="rounded=1;whiteSpace=wrap;html=1;" vertex="1" parent="1">
          <mxGeometry x="-453" y="1275" width="73" height="305" as="geometry" />
        </mxCell>
        <mxCell id="VQ3x69lR2PbkfEP9hfOL-111" value="invite: ajdfuij" style="rounded=0;whiteSpace=wrap;html=1;" vertex="1" parent="1">
          <mxGeometry x="-75" y="1255" width="93" height="20" as="geometry" />
        </mxCell>
        <mxCell id="VQ3x69lR2PbkfEP9hfOL-120" style="edgeStyle=orthogonalEdgeStyle;rounded=0;orthogonalLoop=1;jettySize=auto;html=1;entryX=0;entryY=0;entryDx=0;entryDy=0;" edge="1" parent="1" source="VQ3x69lR2PbkfEP9hfOL-116">
          <mxGeometry relative="1" as="geometry">
            <mxPoint x="-350.0000000000002" y="1640" as="targetPoint" />
            <Array as="points">
              <mxPoint x="-390" y="1418" />
              <mxPoint x="-390" y="1640" />
            </Array>
          </mxGeometry>
        </mxCell>
        <mxCell id="VQ3x69lR2PbkfEP9hfOL-116" value="pdp" style="ellipse;whiteSpace=wrap;html=1;aspect=fixed;" vertex="1" parent="1">
          <mxGeometry x="-365" y="1400" width="35" height="35" as="geometry" />
        </mxCell>
        <mxCell id="VQ3x69lR2PbkfEP9hfOL-117" value="pdp" style="ellipse;whiteSpace=wrap;html=1;aspect=fixed;" vertex="1" parent="1">
          <mxGeometry x="-370" y="1280" width="35" height="35" as="geometry" />
        </mxCell>
        <mxCell id="VQ3x69lR2PbkfEP9hfOL-163" style="edgeStyle=orthogonalEdgeStyle;rounded=0;orthogonalLoop=1;jettySize=auto;html=1;entryX=0.539;entryY=1.003;entryDx=0;entryDy=0;entryPerimeter=0;" edge="1" parent="1" source="VQ3x69lR2PbkfEP9hfOL-118" target="VQ3x69lR2PbkfEP9hfOL-31">
          <mxGeometry relative="1" as="geometry">
            <Array as="points">
              <mxPoint x="-326" y="1620" />
              <mxPoint x="446" y="1620" />
            </Array>
          </mxGeometry>
        </mxCell>
        <mxCell id="VQ3x69lR2PbkfEP9hfOL-118" value="view profil" style="rounded=0;whiteSpace=wrap;html=1;" vertex="1" parent="1">
          <mxGeometry x="-355" y="1640" width="57" height="60" as="geometry" />
        </mxCell>
        <mxCell id="VQ3x69lR2PbkfEP9hfOL-132" style="edgeStyle=orthogonalEdgeStyle;rounded=0;orthogonalLoop=1;jettySize=auto;html=1;entryX=0.798;entryY=1.003;entryDx=0;entryDy=0;entryPerimeter=0;" edge="1" parent="1" source="VQ3x69lR2PbkfEP9hfOL-121" target="VQ3x69lR2PbkfEP9hfOL-68">
          <mxGeometry relative="1" as="geometry">
            <Array as="points">
              <mxPoint x="-269" y="1800" />
              <mxPoint x="1340" y="1800" />
              <mxPoint x="1340" y="721" />
            </Array>
          </mxGeometry>
        </mxCell>
        <mxCell id="VQ3x69lR2PbkfEP9hfOL-121" value="play game" style="rounded=0;whiteSpace=wrap;html=1;" vertex="1" parent="1">
          <mxGeometry x="-298" y="1640" width="57" height="60" as="geometry" />
        </mxCell>
        <mxCell id="VQ3x69lR2PbkfEP9hfOL-122" value="add friend" style="rounded=0;whiteSpace=wrap;html=1;" vertex="1" parent="1">
          <mxGeometry x="-244" y="1640" width="57" height="60" as="geometry" />
        </mxCell>
        <mxCell id="VQ3x69lR2PbkfEP9hfOL-168" style="edgeStyle=orthogonalEdgeStyle;rounded=0;orthogonalLoop=1;jettySize=auto;html=1;entryX=0.5;entryY=0;entryDx=0;entryDy=0;" edge="1" parent="1" source="VQ3x69lR2PbkfEP9hfOL-124" target="VQ3x69lR2PbkfEP9hfOL-166">
          <mxGeometry relative="1" as="geometry">
            <Array as="points">
              <mxPoint x="-162" y="1710" />
              <mxPoint x="-200" y="1710" />
              <mxPoint x="-200" y="1765" />
              <mxPoint x="-238" y="1765" />
            </Array>
          </mxGeometry>
        </mxCell>
        <mxCell id="VQ3x69lR2PbkfEP9hfOL-124" value="block" style="rounded=0;whiteSpace=wrap;html=1;" vertex="1" parent="1">
          <mxGeometry x="-190" y="1640" width="57" height="60" as="geometry" />
        </mxCell>
        <mxCell id="VQ3x69lR2PbkfEP9hfOL-165" style="edgeStyle=orthogonalEdgeStyle;rounded=0;orthogonalLoop=1;jettySize=auto;html=1;entryX=0.5;entryY=0;entryDx=0;entryDy=0;" edge="1" parent="1" source="VQ3x69lR2PbkfEP9hfOL-125" target="VQ3x69lR2PbkfEP9hfOL-164">
          <mxGeometry relative="1" as="geometry" />
        </mxCell>
        <mxCell id="VQ3x69lR2PbkfEP9hfOL-125" value="report" style="rounded=0;whiteSpace=wrap;html=1;" vertex="1" parent="1">
          <mxGeometry x="-133" y="1640" width="57" height="60" as="geometry" />
        </mxCell>
        <mxCell id="VQ3x69lR2PbkfEP9hfOL-131" style="edgeStyle=orthogonalEdgeStyle;rounded=0;orthogonalLoop=1;jettySize=auto;html=1;entryX=0.947;entryY=1;entryDx=0;entryDy=0;entryPerimeter=0;" edge="1" parent="1" source="VQ3x69lR2PbkfEP9hfOL-126" target="VQ3x69lR2PbkfEP9hfOL-68">
          <mxGeometry relative="1" as="geometry">
            <Array as="points">
              <mxPoint x="784" y="1280" />
              <mxPoint x="1400" y="1280" />
            </Array>
          </mxGeometry>
        </mxCell>
        <mxCell id="VQ3x69lR2PbkfEP9hfOL-126" value="play" style="rounded=0;whiteSpace=wrap;html=1;" vertex="1" parent="1">
          <mxGeometry x="748.5" y="1420" width="70" height="60" as="geometry" />
        </mxCell>
        <mxCell id="VQ3x69lR2PbkfEP9hfOL-127" value="invite link: #00000" style="rounded=0;whiteSpace=wrap;html=1;" vertex="1" parent="1">
          <mxGeometry x="1061" y="787.5" width="120" height="28.75" as="geometry" />
        </mxCell>
        <mxCell id="VQ3x69lR2PbkfEP9hfOL-133" value="" style="rounded=0;whiteSpace=wrap;html=1;" vertex="1" parent="1">
          <mxGeometry x="-690" y="770" width="200" height="320" as="geometry" />
        </mxCell>
        <mxCell id="VQ3x69lR2PbkfEP9hfOL-134" value="user amount" style="rounded=0;whiteSpace=wrap;html=1;" vertex="1" parent="1">
          <mxGeometry x="-640" y="845" width="120" height="45" as="geometry" />
        </mxCell>
        <mxCell id="VQ3x69lR2PbkfEP9hfOL-135" value="&lt;span style=&quot;color: rgb(0, 0, 0); font-family: Helvetica; font-size: 12px; font-style: normal; font-variant-ligatures: normal; font-variant-caps: normal; font-weight: 400; letter-spacing: normal; orphans: 2; text-align: center; text-indent: 0px; text-transform: none; widows: 2; word-spacing: 0px; -webkit-text-stroke-width: 0px; background-color: rgb(251, 251, 251); text-decoration-thickness: initial; text-decoration-style: initial; text-decoration-color: initial; float: none; display: inline !important;&quot;&gt;chat name&lt;/span&gt;" style="rounded=0;whiteSpace=wrap;html=1;" vertex="1" parent="1">
          <mxGeometry x="-640" y="810" width="120" height="30" as="geometry" />
        </mxCell>
        <mxCell id="VQ3x69lR2PbkfEP9hfOL-136" value="public / potected /&amp;nbsp; private" style="rounded=0;whiteSpace=wrap;html=1;" vertex="1" parent="1">
          <mxGeometry x="-640" y="900" width="120" height="30" as="geometry" />
        </mxCell>
        <mxCell id="VQ3x69lR2PbkfEP9hfOL-137" value="if protected : password" style="rounded=0;whiteSpace=wrap;html=1;" vertex="1" parent="1">
          <mxGeometry x="-640" y="940" width="120" height="40" as="geometry" />
        </mxCell>
        <mxCell id="VQ3x69lR2PbkfEP9hfOL-141" style="edgeStyle=orthogonalEdgeStyle;rounded=0;orthogonalLoop=1;jettySize=auto;html=1;entryX=0;entryY=0.686;entryDx=0;entryDy=0;entryPerimeter=0;" edge="1" parent="1" source="VQ3x69lR2PbkfEP9hfOL-139" target="VQ3x69lR2PbkfEP9hfOL-102">
          <mxGeometry relative="1" as="geometry">
            <Array as="points">
              <mxPoint x="-480" y="1060" />
              <mxPoint x="-480" y="1490" />
            </Array>
          </mxGeometry>
        </mxCell>
        <mxCell id="VQ3x69lR2PbkfEP9hfOL-139" value="Create" style="rounded=0;whiteSpace=wrap;html=1;" vertex="1" parent="1">
          <mxGeometry x="-640" y="1040" width="120" height="40" as="geometry" />
        </mxCell>
        <mxCell id="VQ3x69lR2PbkfEP9hfOL-162" style="edgeStyle=orthogonalEdgeStyle;rounded=0;orthogonalLoop=1;jettySize=auto;html=1;entryX=-0.005;entryY=0.825;entryDx=0;entryDy=0;entryPerimeter=0;" edge="1" parent="1" source="VQ3x69lR2PbkfEP9hfOL-161" target="VQ3x69lR2PbkfEP9hfOL-47">
          <mxGeometry relative="1" as="geometry">
            <mxPoint x="340.0000000000002" y="1670" as="targetPoint" />
          </mxGeometry>
        </mxCell>
        <mxCell id="VQ3x69lR2PbkfEP9hfOL-161" value="chat" style="rounded=0;whiteSpace=wrap;html=1;" vertex="1" parent="1">
          <mxGeometry x="-76" y="1640" width="57" height="60" as="geometry" />
        </mxCell>
        <mxCell id="VQ3x69lR2PbkfEP9hfOL-167" style="edgeStyle=orthogonalEdgeStyle;rounded=0;orthogonalLoop=1;jettySize=auto;html=1;entryX=1;entryY=0.5;entryDx=0;entryDy=0;" edge="1" parent="1" source="VQ3x69lR2PbkfEP9hfOL-164" target="VQ3x69lR2PbkfEP9hfOL-166">
          <mxGeometry relative="1" as="geometry">
            <mxPoint x="-104.5" y="1870" as="targetPoint" />
          </mxGeometry>
        </mxCell>
        <mxCell id="VQ3x69lR2PbkfEP9hfOL-164" value="motif" style="rounded=0;whiteSpace=wrap;html=1;" vertex="1" parent="1">
          <mxGeometry x="-164.5" y="1724" width="120" height="60" as="geometry" />
        </mxCell>
        <mxCell id="VQ3x69lR2PbkfEP9hfOL-166" value="validation box" style="rounded=0;whiteSpace=wrap;html=1;" vertex="1" parent="1">
          <mxGeometry x="-298" y="1830" width="120" height="60" as="geometry" />
        </mxCell>
        <mxCell id="VQ3x69lR2PbkfEP9hfOL-172" value="CREATE CHAT" style="rounded=0;whiteSpace=wrap;html=1;" vertex="1" parent="1">
          <mxGeometry x="-640" y="740" width="120" height="50" as="geometry" />
        </mxCell>
        <mxCell id="VQ3x69lR2PbkfEP9hfOL-173" value="CREATE GAME" style="rounded=0;whiteSpace=wrap;html=1;" vertex="1" parent="1">
          <mxGeometry x="780" y="740" width="120" height="50" as="geometry" />
        </mxCell>
        <mxCell id="VQ3x69lR2PbkfEP9hfOL-174" value="game waitlist" style="rounded=0;whiteSpace=wrap;html=1;" vertex="1" parent="1">
          <mxGeometry x="1070" y="730" width="120" height="50" as="geometry" />
        </mxCell>
      </root>
    </mxGraphModel>
  </diagram>
</mxfile>
